# Blender 4.0.2
# www.blender.org
o Cube.008
v 0.771315 -0.022689 -2.287396
v 1.104739 -0.348202 -2.124947
v 0.555175 -0.022689 -1.843771
v 0.888599 -0.348202 -1.681323
v 1.063945 0.348202 -2.144823
v 1.397368 0.022689 -1.982374
v 0.847805 0.348202 -1.701198
v 1.181228 0.022689 -1.538750
vn -0.5930 -0.7516 -0.2889
vn -0.4380 -0.0000 0.8990
vn 0.5930 0.7516 0.2889
vn 0.4380 -0.0000 -0.8990
vn -0.6757 0.6596 -0.3292
vn 0.6757 -0.6596 0.3292
vt 0.184478 0.862974
vt 0.164440 0.883013
vt 0.164440 0.862974
vt 0.184478 0.883013
vt 0.164440 0.903051
vt 0.184478 0.903051
vt 0.164440 0.923089
vt 0.184478 0.923089
vt 0.164440 0.943128
vt 0.144401 0.923089
vt 0.144401 0.903051
vt 1.012600 1.022020
vt -0.016221 -0.006805
vt 1.012600 -0.006805
vt 0.184478 0.943128
vt -0.016222 1.022019
s 0
f 2/1/1 3/2/1 1/3/1
f 4/4/2 7/5/2 3/2/2
f 8/6/3 5/7/3 7/5/3
f 6/8/4 1/9/4 5/7/4
f 7/5/5 1/10/5 3/11/5
f 4/12/6 6/13/6 8/14/6
f 2/1/1 4/4/1 3/2/1
f 4/4/2 8/6/2 7/5/2
f 8/6/3 6/8/3 5/7/3
f 6/8/4 2/15/4 1/9/4
f 7/5/5 5/7/5 1/10/5
f 4/12/6 2/16/6 6/13/6
